<svg width="16" height="16" viewBox="0 0 16 16" fill="none" xmlns="http://www.w3.org/2000/svg">
<path fill-rule="evenodd" clip-rule="evenodd" d="M8 1.3333C4.3181 1.3333 1.33333 4.31807 1.33333 7.99997C1.33333 11.6819 4.3181 14.6666 8 14.6666C11.6819 14.6666 14.6667 11.6819 14.6667 7.99997C14.6667 4.31807 11.6819 1.3333 8 1.3333ZM0 7.99997C0 3.58169 3.58172 -3.05176e-05 8 -3.05176e-05C12.4183 -3.05176e-05 16 3.58169 16 7.99997C16 12.4182 12.4183 16 8 16C3.58172 16 0 12.4182 0 7.99997ZM8.20056 5.01876C7.84366 4.95754 7.47661 5.02461 7.16442 5.20809C6.85223 5.39156 6.61505 5.67961 6.49489 6.0212C6.37271 6.36852 5.9921 6.55104 5.64477 6.42886C5.29744 6.30668 5.11493 5.92607 5.23711 5.57874C5.46177 4.94011 5.90519 4.4016 6.48884 4.05858C7.0725 3.71556 7.75872 3.59017 8.42597 3.70462C9.09321 3.81907 9.69842 4.16598 10.1344 4.68389C10.5702 5.20163 10.8088 5.85686 10.808 6.53361C10.8078 7.62068 10.0013 8.34453 9.41113 8.738C9.09571 8.94828 8.78504 9.10315 8.55584 9.20501C8.4403 9.25636 8.34309 9.2953 8.2732 9.32192C8.2382 9.33525 8.20989 9.34556 8.18938 9.35285L8.16455 9.36155L8.15675 9.36421L8.15405 9.36513L8.153 9.36548C8.1528 9.36554 8.15216 9.36576 7.95089 8.76198L8.153 9.36548C7.8037 9.48191 7.42531 9.29342 7.30888 8.94412C7.19259 8.59525 7.38076 8.2182 7.72923 8.10128L7.73074 8.10076L7.7427 8.09657C7.75442 8.0924 7.77338 8.08552 7.79853 8.07594C7.84896 8.05673 7.92362 8.02691 8.01432 7.9866C8.19763 7.90513 8.43695 7.78499 8.67153 7.6286C9.18127 7.28878 9.47467 6.91273 9.47467 6.5333C9.47521 6.17119 9.34757 5.81958 9.11437 5.54256C8.88117 5.26553 8.55746 5.07998 8.20056 5.01876ZM7.33333 11.6666C7.33333 11.2984 7.63181 11 8 11H8.00733C8.37552 11 8.674 11.2984 8.674 11.6666C8.674 12.0348 8.37552 12.3333 8.00733 12.3333H8C7.63181 12.3333 7.33333 12.0348 7.33333 11.6666Z" fill="#6D7881"/>
</svg>
